<svg xmlns="http://www.w3.org/2000/svg" viewBox="0 0 360 320" fill="none">
  <ellipse cx="180" cy="300" rx="140" ry="12" fill="#93C5FD" opacity="0.35"/>
  <g transform="translate(48, 40)">
    <circle cx="70" cy="52" r="34" fill="#FCD9B6"/>
    <path d="M36 52c0-18 15-32 34-32s34 14 34 32" fill="#4A3728"/>
    <rect x="28" y="86" width="84" height="120" rx="8" fill="#1E3A8A"/>
    <path d="M20 118h100v18H20z" fill="#fff" opacity="0.15"/>
    <path d="M52 206h36v54h-36z" fill="#334155"/>
    <path d="M34 260h72v18H34z" fill="#1E293B"/>
    <ellipse cx="58" cy="48" rx="5" ry="6" fill="#4A3728"/>
    <ellipse cx="82" cy="48" rx="5" ry="6" fill="#4A3728"/>
    <path d="M64 62c4 4 10 4 14 0" stroke="#B45309" stroke-width="2" stroke-linecap="round"/>
    <path d="M88 78c10 8 14 18 12 28" stroke="#FCD9B6" stroke-width="10" stroke-linecap="round"/>
    <ellipse cx="102" cy="104" rx="10" ry="12" fill="#FCD9B6"/>
  </g>
  <g transform="translate(188, 36)">
    <circle cx="62" cy="56" r="32" fill="#FCD9B6"/>
    <path d="M30 58c0-16 14-30 32-30s32 14 32 30" fill="#5C3D2E"/>
    <path d="M22 88c8-6 24-10 40-10s32 4 40 10v108c0 8-6 14-14 14H36c-8 0-14-6-14-14V88z" fill="#fff"/>
    <path d="M30 96h64v8H30z" fill="#E2E8F0"/>
    <path d="M46 210h32v52H46z" fill="#475569"/>
    <path d="M30 262h64v16H30z" fill="#334155"/>
    <ellipse cx="50" cy="52" rx="4" ry="5" fill="#4A3728"/>
    <ellipse cx="74" cy="52" rx="4" ry="5" fill="#4A3728"/>
    <path d="M56 66c3 3 8 3 11 0" stroke="#B45309" stroke-width="2" stroke-linecap="round"/>
    <path d="M24 82c-10 8-14 18-12 28" stroke="#FCD9B6" stroke-width="10" stroke-linecap="round"/>
    <ellipse cx="14" cy="108" rx="10" ry="12" fill="#FCD9B6"/>
  </g>
</svg>
